<?xml version="1.0" standalone="no"?>
<!DOCTYPE svg PUBLIC "-//W3C//DTD SVG 20010904//EN"
 "http://www.w3.org/TR/2001/REC-SVG-20010904/DTD/svg10.dtd">
<svg version="1.0" xmlns="http://www.w3.org/2000/svg"
 width="600.000000pt" height="420.000000pt" viewBox="0 0 600.000000 420.000000"
 preserveAspectRatio="xMidYMid meet">

<g transform="translate(0.000000,420.000000) scale(0.100000,-0.100000)"
fill="#000000" stroke="none">
<path d="M0 2100 l0 -2100 3000 0 3000 0 0 2100 0 2100 -3000 0 -3000 0 0
-2100z m4077 1768 l153 -153 0 -69 c0 -55 -5 -76 -22 -101 -31 -46 -78 -75
-122 -75 -32 0 -46 7 -81 43 -23 23 -45 49 -49 57 -5 13 -7 13 -12 0 -4 -8
-26 -34 -51 -57 -36 -35 -50 -43 -82 -43 -44 0 -97 31 -126 76 l-20 31 -50
-54 c-46 -48 -55 -53 -95 -53 -40 0 -48 5 -96 54 l-53 54 -20 -34 c-26 -44
-76 -74 -123 -74 -31 0 -46 8 -81 43 -25 23 -47 49 -51 57 -5 13 -7 13 -12 0
-4 -8 -26 -34 -51 -57 -35 -35 -50 -43 -81 -43 -51 0 -99 36 -139 104 -8 13
-12 16 -13 7 0 -22 -48 -80 -80 -96 -37 -19 -73 -19 -109 0 -28 14 -73 60 -85
87 -5 10 -7 10 -12 -2 -4 -8 -26 -34 -51 -57 -35 -35 -50 -43 -81 -43 -47 0
-101 36 -127 83 l-19 36 -21 -37 c-27 -49 -78 -82 -126 -82 -32 0 -46 8 -82
43 -25 23 -47 49 -51 57 -5 13 -7 13 -12 0 -4 -8 -26 -34 -51 -57 -35 -35 -50
-43 -81 -43 -81 0 -149 83 -151 186 l-1 51 137 156 138 157 995 0 995 0 152
-152z m-1427 -810 c82 -42 85 -52 85 -273 0 -180 -1 -196 -21 -222 -70 -97
-268 -97 -338 0 -20 26 -21 42 -21 222 0 180 1 196 21 222 32 44 98 73 169 73
43 0 73 -6 105 -22z m917 11 c14 -12 17 -66 5 -86 -4 -7 -36 -13 -72 -15 l-65
-3 -3 -224 c-1 -145 -6 -229 -13 -238 -14 -16 -70 -17 -92 0 -15 10 -17 40
-19 237 l-3 225 -70 5 c-38 3 -100 4 -137 2 l-68 -4 0 -228 c0 -216 -1 -230
-19 -240 -11 -5 -32 -10 -46 -10 -14 0 -35 5 -46 10 -18 10 -19 24 -19 240 l0
229 -67 3 c-62 3 -68 5 -76 28 -5 15 -5 36 2 52 l10 28 392 0 c271 0 397 -4
406 -11z m-1183 -772 c21 -16 179 -512 171 -538 -7 -21 -55 -42 -87 -37 -18 2
-27 15 -42 61 l-18 57 -83 0 -83 0 -18 -57 c-16 -50 -23 -58 -46 -61 -32 -4
-88 23 -88 42 0 7 34 125 76 262 52 170 82 255 96 267 24 20 96 23 122 4z
m502 -8 c139 -67 117 -307 -31 -348 -22 -6 -66 -11 -97 -11 l-58 0 0 -95 c0
-104 -6 -115 -69 -115 -60 0 -61 4 -61 299 0 194 3 270 12 279 8 8 53 12 137
12 106 0 131 -3 167 -21z m441 -5 c40 -30 73 -82 74 -118 1 -30 1 -30 10 7 22
95 81 132 214 132 121 0 167 -27 151 -90 -10 -38 -39 -48 -82 -30 -48 20 -118
20 -138 -1 -35 -34 -17 -54 96 -108 101 -48 131 -85 136 -171 5 -76 -12 -114
-68 -151 -102 -67 -310 -25 -318 65 -4 37 20 71 50 71 10 0 31 -9 47 -21 55
-40 132 -42 156 -4 23 35 2 61 -80 100 -89 43 -133 78 -151 120 -13 32 -13 32
-33 -42 -20 -71 -96 -113 -208 -113 l-53 0 0 -89 c0 -68 -4 -93 -16 -105 -18
-18 -66 -21 -95 -6 -18 10 -19 24 -19 283 0 205 3 276 13 286 9 9 47 12 149 9
120 -3 140 -6 165 -24z m-860 -866 c14 -18 15 -159 1 -175 -6 -7 -31 -13 -59
-13 l-49 0 0 100 0 100 49 0 c27 0 53 -6 58 -12z m582 -1 c16 -20 4 -26 -35
-20 -44 7 -45 -13 -3 -62 35 -40 49 -44 49 -15 0 11 4 20 9 20 17 0 21 -18 12
-43 -8 -19 -6 -29 5 -38 10 -8 12 -15 5 -22 -7 -7 -15 -6 -23 1 -9 7 -19 7
-28 2 -23 -15 -62 -12 -82 7 -22 20 -24 66 -3 83 11 9 13 16 5 24 -15 15 -12
42 6 60 19 20 68 21 83 3z m205 -3 c9 -8 16 -22 16 -29 0 -24 -18 -27 -30 -5
-7 14 -19 20 -33 18 -20 -3 -22 -9 -22 -68 0 -59 2 -65 22 -68 14 -2 26 4 33
18 15 27 35 12 25 -19 -8 -25 -48 -37 -84 -25 -25 9 -26 14 -29 86 -2 59 1 79
13 92 21 20 69 21 89 0z m56 -23 c0 -35 2 -38 23 -34 37 7 57 -21 57 -78 0
-36 -4 -49 -14 -49 -11 0 -16 14 -18 48 -3 39 -6 47 -23 47 -17 0 -20 -8 -23
-47 -2 -34 -7 -48 -18 -48 -11 0 -14 19 -14 100 0 82 3 100 15 100 11 0 15
-11 15 -39z m178 -58 c-2 -66 -7 -98 -15 -101 -10 -3 -13 21 -13 97 0 84 3
101 15 101 13 0 15 -15 13 -97z m52 -3 c0 -82 -3 -100 -15 -100 -12 0 -15 18
-15 100 0 82 3 100 15 100 12 0 15 -18 15 -100z m-1015 81 c7 -12 -12 -24 -25
-16 -11 7 -4 25 10 25 5 0 11 -4 15 -9z m910 0 c7 -12 -12 -24 -25 -16 -11 7
-4 25 10 25 5 0 11 -4 15 -9z m-660 -66 c-3 -14 -7 -36 -10 -50 -4 -17 -15
-27 -38 -33 l-32 -9 37 -7 c67 -13 57 -76 -12 -76 -38 0 -65 23 -55 46 4 10 7
42 6 70 -2 58 8 70 59 77 19 2 38 5 43 5 4 1 5 -9 2 -23z m-247 -47 c-2 -38
-8 -63 -15 -66 -10 -3 -13 14 -13 62 0 53 3 66 15 66 13 0 15 -11 13 -62z
m117 38 c21 -31 17 -101 -5 -101 -11 0 -16 13 -18 48 -3 38 -7 47 -21 47 -22
0 -31 -19 -31 -67 0 -54 -24 -35 -28 22 -4 65 0 71 47 73 33 2 44 -3 56 -22z
m229 8 c9 -8 16 -24 16 -35 0 -16 -7 -19 -40 -19 -39 0 -52 -12 -28 -26 7 -5
25 -7 40 -6 30 2 38 -12 12 -22 -49 -19 -94 9 -94 57 0 57 58 88 94 51z m564
-46 c-2 -38 -8 -63 -15 -66 -10 -3 -13 14 -13 62 0 53 3 66 15 66 13 0 15 -11
13 -62z m812 -468 l0 -110 -105 0 -104 0 24 -36 c84 -124 70 -293 -36 -408
-68 -75 -129 -101 -239 -101 -74 0 -93 4 -143 29 -64 32 -124 94 -159 164 -18
37 -23 64 -23 127 0 82 16 136 58 198 l18 27 -596 0 -596 0 25 -32 c59 -79 72
-237 27 -327 -34 -65 -105 -136 -164 -162 -41 -19 -70 -24 -137 -24 -74 0 -93
4 -143 29 -64 32 -125 94 -159 164 -18 37 -23 64 -23 127 0 83 15 136 58 198
l18 27 -95 0 -96 0 0 110 0 110 1295 0 1295 0 0 -110z"/>
<path d="M2499 2951 c-23 -19 -24 -24 -24 -166 0 -142 1 -147 24 -166 13 -10
33 -19 46 -19 13 0 33 9 46 19 23 19 24 24 24 166 0 142 -1 147 -24 166 -13
10 -33 19 -46 19 -13 0 -33 -9 -46 -19z"/>
<path d="M2310 2099 c-6 -24 -18 -66 -26 -93 -8 -27 -14 -53 -14 -58 0 -4 25
-8 56 -8 48 0 55 2 50 18 -2 9 -14 53 -26 97 -12 44 -24 82 -25 84 -2 1 -9
-17 -15 -40z"/>
<path d="M2700 2115 l0 -87 60 4 c33 2 66 10 73 17 6 6 12 36 12 66 0 30 -6
60 -12 66 -7 7 -40 15 -73 17 l-60 4 0 -87z"/>
<path d="M3130 2115 l0 -85 49 0 c69 0 96 24 96 85 0 61 -27 85 -96 85 l-49 0
0 -85z"/>
<path d="M2390 1375 c0 -23 4 -26 28 -23 19 2 27 9 27 23 0 14 -8 21 -27 23
-24 3 -28 0 -28 -23z"/>
<path d="M2397 1323 c-4 -3 -7 -19 -7 -35 0 -24 4 -28 30 -28 26 0 30 3 30 29
0 33 -33 54 -53 34z"/>
<path d="M2974 1305 c-10 -25 4 -45 31 -45 29 0 31 7 9 38 -18 26 -32 28 -40
7z"/>
<path d="M2704 1326 c-8 -22 3 -49 19 -43 6 2 12 14 12 27 0 27 -22 39 -31 16z"/>
<path d="M2695 1220 c-9 -15 4 -30 25 -30 24 0 36 20 19 31 -19 12 -36 11 -44
-1z"/>
<path d="M2823 1333 c-22 -8 -14 -23 12 -23 14 0 25 4 25 9 0 11 -21 19 -37
14z"/>
<path d="M1905 679 c-56 -63 -75 -113 -71 -192 4 -76 33 -134 90 -185 19 -16
32 -34 28 -38 -4 -4 -2 -4 4 -1 6 4 26 -1 45 -10 112 -56 265 -2 333 117 27
48 31 65 31 130 0 64 -4 83 -29 128 -49 88 -59 92 -239 92 l-155 0 -37 -41z
m224 -171 c12 -31 -19 -47 -53 -28 -22 11 -23 13 -8 31 22 26 51 24 61 -3z"/>
<path d="M3595 679 c-56 -63 -75 -113 -71 -192 4 -76 33 -134 90 -185 19 -16
32 -34 28 -38 -4 -4 -2 -4 4 -1 6 4 25 0 42 -9 114 -57 271 -2 337 117 26 46
30 64 30 129 0 64 -4 83 -29 128 -49 88 -59 92 -239 92 l-155 0 -37 -41z m224
-171 c12 -31 -19 -47 -53 -28 -22 11 -23 13 -8 31 22 26 51 24 61 -3z"/>
</g>
</svg>
